<svg xmlns="http://www.w3.org/2000/svg" width="1280" height="720" viewBox="0 0 1280 720" fill="none">
  <defs>
    <linearGradient id="g" x1="0" x2="1" y1="0" y2="1">
      <stop offset="0%" stop-color="#0b1729"/>
      <stop offset="100%" stop-color="#12233d"/>
    </linearGradient>
  </defs>
  <rect width="1280" height="720" fill="url(#g)"/>
  <text x="36" y="64" fill="#e2ecff" font-family="Segoe UI" font-size="28" font-weight="bold">Clusnux Control Plane (Tk)</text>
  <text x="36" y="92" fill="#9fb4d4" font-family="Segoe UI" font-size="16">Futuristic Docker-inspired blue console</text>
  <rect x="24" y="120" width="1232" height="72" rx="10" fill="#1c2f4c"/>
  <text x="40" y="166" fill="#e2ecff" font-family="Segoe UI" font-size="16">Role: admin | WS URLs: ws://127.0.0.1:8734, ws://10.0.0.12:8734 | Connect · Heartbeat · Metrics</text>
  <rect x="24" y="208" width="320" height="460" rx="12" fill="#12233d" stroke="#1f395d"/>
  <text x="40" y="240" fill="#9fb4d4" font-family="Segoe UI" font-size="16">Servers</text>
  <text x="40" y="270" fill="#e2ecff" font-family="Segoe UI" font-size="15">alpha · admin · online</text>
  <text x="40" y="296" fill="#e2ecff" font-family="Segoe UI" font-size="15">beta · cluster · online</text>
  <text x="40" y="322" fill="#e2ecff" font-family="Segoe UI" font-size="15">gamma · orchestrator · standby</text>
  <rect x="360" y="208" width="896" height="460" rx="12" fill="#12233d" stroke="#1f395d"/>
  <text x="380" y="240" fill="#e2ecff" font-family="Segoe UI" font-size="20">alpha (admin)</text>
  <text x="380" y="270" fill="#9fb4d4" font-family="Segoe UI" font-size="14">10.0.0.11 | ws://127.0.0.1:8734 | status: online</text>
  <rect x="380" y="288" width="860" height="220" rx="10" fill="#0f1f36"/>
  <rect x="410" y="340" width="180" height="120" rx="8" fill="#3a86ff" opacity="0.9"/>
  <rect x="640" y="360" width="180" height="100" rx="8" fill="#4cc9f0" opacity="0.9"/>
  <rect x="870" y="380" width="180" height="80" rx="8" fill="#00f5d4" opacity="0.9"/>
  <text x="445" y="332" fill="#0b1729" font-family="Segoe UI" font-size="14" font-weight="bold">CPU 72%</text>
  <text x="676" y="352" fill="#0b1729" font-family="Segoe UI" font-size="14" font-weight="bold">Mem 48%</text>
  <text x="904" y="372" fill="#0b1729" font-family="Segoe UI" font-size="14" font-weight="bold">Net 29%</text>
  <text x="380" y="540" fill="#9fb4d4" font-family="Segoe UI" font-size="14">Tabs: Overview · Settings · Storage · Commands &amp; Tasks · Load Balancer</text>
  <text x="380" y="566" fill="#e2ecff" font-family="Segoe UI" font-size="14">- Push Docker / mergerfs / Samba settings via WS</text>
  <text x="380" y="588" fill="#e2ecff" font-family="Segoe UI" font-size="14">- Run commands (streamed output) &amp; refresh runtime tasks</text>
  <text x="380" y="610" fill="#e2ecff" font-family="Segoe UI" font-size="14">- Orchestrator tab controls LB mode and targets</text>
  <rect x="24" y="688" width="1232" height="8" fill="#3a86ff" opacity="0.7"/>
</svg>
